<svg width="52" height="57" viewBox="0 0 52 57" fill="none" xmlns="http://www.w3.org/2000/svg">
<path d="M29.1964 56.4667C28.3117 56.4667 27.4166 56.367 26.5294 56.1648L4.42685 51.0986C3.47135 50.8991 2.58148 50.4108 1.85698 49.6863C0.864726 48.6941 0.316101 47.3737 0.316101 45.9746C0.316101 44.5728 0.864726 43.2551 1.85698 42.2628C2.53948 41.5803 3.36898 41.1105 4.2641 40.8926C4.29035 40.8821 4.3166 40.8768 4.34285 40.8689L15.4729 38.1993C16.179 38.0234 16.8877 38.4671 17.0557 39.1706C17.2237 39.8767 16.788 40.5828 16.0845 40.7534L5.0306 43.4047C4.99648 43.4152 4.96235 43.4257 4.9256 43.4336C4.4846 43.5307 4.0646 43.7696 3.71285 44.1213C3.21673 44.6175 2.9411 45.2763 2.9411 45.9772C2.9411 46.6781 3.2141 47.3369 3.71285 47.8331C4.06198 48.1822 4.4951 48.429 4.93085 48.5261C4.94923 48.5287 4.96498 48.5313 4.98073 48.5366L27.1174 53.6107C30.2227 54.3221 33.4174 53.4033 35.667 51.1511L46.4085 40.4069C48.1436 38.6718 49.0991 36.3644 49.0991 33.9101C49.0991 31.4557 48.1436 29.1509 46.4085 27.4132L23.2061 4.21082C22.1797 3.18445 20.5207 3.18445 19.4944 4.21082C18.4706 5.23457 18.4706 6.89882 19.4944 7.92257C20.0062 8.43445 20.0062 9.26657 19.4944 9.77845C18.9825 10.2903 18.1504 10.2903 17.6385 9.77845C15.5936 7.73357 15.5936 4.39982 17.6385 2.35495C19.6834 0.31007 23.0171 0.31007 25.062 2.35495L48.2644 25.5573C50.4982 27.7886 51.7241 30.7522 51.7241 33.9101C51.7241 37.068 50.4956 40.0316 48.2644 42.2628L37.5229 53.007C35.2706 55.2513 32.2886 56.4667 29.1964 56.4667Z" fill="black"/>
</svg>
